<svg t="1582423220464" class="icon" viewBox="0 0 1037 1024" version="1.1" xmlns="http://www.w3.org/2000/svg" p-id="3210" width="128" height="128"><path d="M603.296 878.903a323.008 323.008 0 0 1-277.438-52.942 144.08 144.08 0 1 0-201.042 38.869 144.75 144.75 0 0 0 145.42 9.382 393.372 393.372 0 0 0 351.824 73.715 36.188 36.188 0 0 0 24.125-44.9 37.528 37.528 0 0 0-43.56-24.795zM518.188 62.001a143.41 143.41 0 0 0-142.74 134.028 394.713 394.713 0 0 0-239.91 268.057 36.858 36.858 0 0 0 25.465 44.229 36.858 36.858 0 0 0 44.23-25.465A321.667 321.667 0 0 1 389.52 268.405 144.08 144.08 0 1 0 518.858 62zM909.55 626.26a396.053 396.053 0 0 0-109.903-341.772 36.188 36.188 0 1 0-50.93 50.93 324.348 324.348 0 0 1 93.82 268.057A145.42 145.42 0 1 0 909.55 627.6z" p-id="3211"></path></svg>